<?xml version="1.0" standalone="no"?>
<!DOCTYPE svg PUBLIC "-//W3C//DTD SVG 20010904//EN"
 "http://www.w3.org/TR/2001/REC-SVG-20010904/DTD/svg10.dtd">
<svg version="1.0" xmlns="http://www.w3.org/2000/svg"
 width="744.000000pt" height="744.000000pt" viewBox="0 0 744.000000 744.000000"
 preserveAspectRatio="xMidYMid meet">
<metadata>
Created by potrace 1.14, written by Peter Selinger 2001-2017
</metadata>
<g transform="translate(0.000000,744.000000) scale(0.100000,-0.100000)"
fill="#000000" stroke="none">
<path d="M2497 7263 c-1 -1 -27 -4 -57 -7 -51 -5 -68 -8 -125 -20 -87 -19
-315 -126 -315 -147 0 -5 -5 -9 -11 -9 -16 0 -85 -57 -143 -118 -73 -76 -132
-159 -176 -248 -76 -153 -102 -270 -104 -464 0 -72 -4 -130 -7 -130 -4 0 -3
-18 1 -39 4 -25 3 -44 -3 -50 -8 -8 -7 -11 2 -11 9 0 10 -4 4 -12 -5 -7 -7
-24 -4 -37 4 -14 4 -50 0 -80 -8 -68 8 -101 49 -102 15 0 272 0 571 0 467 0
545 2 560 15 15 13 16 78 15 725 0 581 -3 713 -14 726 -11 14 -32 16 -128 13
-62 -2 -114 -4 -115 -5z"/>
<path d="M3109 6747 c-1 -1369 2 -3160 6 -3232 2 -44 6 -91 9 -105 2 -14 7
-43 10 -65 3 -22 8 -51 11 -65 3 -14 8 -37 10 -51 34 -228 199 -606 361 -825
57 -78 50 -69 124 -154 123 -142 264 -267 410 -365 41 -28 77 -52 80 -55 20
-20 272 -143 365 -178 80 -31 228 -77 275 -86 14 -3 36 -7 50 -10 14 -3 50
-10 80 -15 30 -6 71 -13 90 -17 47 -8 480 -14 480 -5 0 3 17 6 38 7 20 0 57 4
82 8 80 14 95 16 120 20 14 2 35 6 47 10 12 4 31 9 43 11 179 34 530 186 665
288 6 4 39 28 75 53 123 88 305 258 410 384 25 29 50 58 55 65 6 6 15 18 20
27 6 8 33 49 61 89 48 71 108 168 109 179 0 3 7 16 15 30 40 71 113 240 103
240 -3 0 -1 6 5 13 14 17 73 219 88 302 25 145 32 240 29 430 -2 116 -5 226
-8 245 -3 19 -11 67 -17 105 -7 39 -14 79 -16 90 -1 11 -7 35 -13 53 -5 18
-10 33 -9 35 1 7 -27 105 -53 182 -45 133 -178 398 -242 480 -4 6 -31 42 -59
80 -94 127 -260 296 -362 370 -15 11 -37 28 -49 39 -77 65 -274 190 -381 240
-175 83 -366 146 -511 171 -11 2 -33 6 -50 10 -37 7 -95 13 -200 20 -44 2 -80
5 -80 6 0 4 -325 8 -675 8 l-406 1 -1 263 c-1 144 -4 285 -7 312 -8 63 -42
200 -61 243 -8 17 -23 49 -32 70 -50 111 -177 269 -284 352 -24 19 -46 37 -49
40 -12 12 -160 89 -215 111 -34 14 -158 48 -200 55 -22 3 -109 8 -192 9 l-153
4 -1 -522z m1646 -1330 c11 -3 45 -8 75 -12 216 -28 556 -149 703 -249 21 -14
42 -26 47 -26 4 0 10 -4 12 -8 2 -5 24 -23 50 -40 58 -40 190 -168 251 -244
50 -62 111 -163 162 -267 45 -92 115 -302 118 -354 1 -15 4 -27 7 -27 3 0 6
-8 7 -17 1 -10 4 -30 7 -45 30 -145 40 -247 39 -419 -1 -75 -4 -156 -7 -180
-4 -24 -9 -64 -12 -89 -18 -179 -112 -379 -238 -504 -73 -73 -203 -166 -231
-166 -8 0 -15 -4 -15 -8 0 -4 -26 -16 -57 -26 -32 -10 -69 -22 -83 -27 -14 -5
-38 -11 -55 -13 -77 -13 -101 -17 -118 -22 -38 -12 -265 -5 -340 10 -202 40
-437 186 -557 346 -14 18 -29 38 -35 45 -26 29 -87 141 -113 206 -20 52 -44
132 -58 194 -8 35 -16 1865 -8 1912 3 23 11 33 27 36 27 6 394 0 422 -6z"/>
<path d="M1560 5468 c1 -13 1 -26 1 -30 -6 -23 -2 -1920 3 -1925 3 -3 2 -11
-3 -17 -5 -6 -6 -32 -2 -58 5 -27 5 -48 2 -48 -3 0 -6 -57 -7 -128 -1 -173
-23 -527 -38 -597 -2 -11 -7 -54 -11 -95 -4 -41 -9 -84 -11 -95 -2 -11 -6 -35
-9 -54 -2 -18 -7 -52 -11 -75 -3 -22 -7 -50 -9 -61 -1 -11 -3 -20 -4 -20 -1 0
-4 -16 -7 -35 -7 -58 -54 -293 -64 -320 -5 -14 -12 -36 -14 -50 -3 -14 -14
-50 -26 -80 -12 -30 -26 -68 -32 -84 -32 -85 -146 -290 -173 -308 -5 -4 -6 -8
-2 -8 5 0 2 -6 -5 -13 -7 -8 -22 -27 -33 -43 -20 -29 -276 -288 -330 -334 -17
-14 -52 -43 -80 -65 -27 -22 -52 -42 -55 -45 -33 -36 -298 -217 -436 -298 -79
-47 -144 -101 -144 -120 0 -6 -4 -12 -9 -12 -13 0 -51 -95 -51 -130 0 -50 25
-97 70 -129 37 -27 48 -30 104 -27 83 4 149 37 436 215 8 6 68 43 133 83 65
40 135 84 157 98 21 14 60 38 87 54 84 51 218 141 221 149 2 4 8 7 13 7 9 0
43 22 88 57 9 7 41 30 71 52 30 22 60 44 65 48 6 5 28 22 50 38 39 29 128 100
151 120 6 6 30 26 54 45 23 19 61 52 83 72 21 21 41 38 44 38 3 0 19 15 37 33
18 17 82 80 142 138 115 112 208 214 236 259 9 15 20 29 25 31 10 5 118 165
150 224 82 147 186 383 198 447 2 11 7 28 10 38 3 10 8 27 10 37 2 10 10 45
19 78 8 33 17 71 20 85 3 14 7 36 11 50 5 26 24 135 30 180 2 14 6 39 9 55 3
17 8 62 11 100 4 39 9 86 11 105 2 19 6 193 8 387 2 193 7 356 10 362 4 5 3
12 -2 15 -5 3 -7 20 -5 38 2 18 3 49 3 68 -3 119 -3 147 3 156 3 5 2 16 -2 22
-4 7 -5 30 -2 50 4 20 4 56 1 79 -4 23 -3 47 1 54 4 6 3 25 -1 40 -5 16 -5 29
-1 29 4 0 5 20 1 45 -4 24 -4 49 0 54 3 6 3 36 0 66 -3 30 -4 55 -1 55 4 0 5
105 3 232 -3 265 -3 329 4 339 2 4 0 10 -6 14 -6 4 -7 11 -4 17 8 13 7 244 -1
258 -4 7 -208 10 -601 10 l-595 0 1 -22z"/>
</g>
</svg>
